<svg width="43.44" height="42.37" viewBox="0 0 43.438667 42.366489" xmlns="http://www.w3.org/2000/svg"><path d="M21.716-.007C9.727-.007.002 9.714.002 21.707c0 9.594 6.221 17.73 14.85 20.608 1.086.2 1.482-.47 1.482-1.046 0-.516-.019-1.88-.03-3.692-6.04 1.311-7.314-2.912-7.314-2.912-.987-2.508-2.411-3.176-2.411-3.176-1.972-1.347.15-1.32.15-1.32 2.179.153 3.325 2.238 3.325 2.238 1.937 3.318 5.083 2.36 6.32 1.804.197-1.403.758-2.36 1.378-2.902-4.821-.548-9.89-2.412-9.89-10.732 0-2.37.846-4.31 2.235-5.827-.224-.549-.97-2.758.213-5.746 0 0 1.822-.584 5.97 2.226 1.732-.483 3.59-.723 5.436-.732 1.845.01 3.702.25 5.436.732 4.146-2.81 5.966-2.226 5.966-2.226 1.185 2.988.44 5.197.217 5.746 1.392 1.517 2.231 3.457 2.231 5.827 0 8.342-5.077 10.177-9.913 10.715.778.67 1.473 1.995 1.473 4.02 0 2.903-.027 5.245-.027 5.957 0 .581.392 1.257 1.493 1.045 8.622-2.878 14.836-11.01 14.836-20.608C43.428 9.713 33.706-.01 21.714-.01" fill="#fff" fill-rule="evenodd"/></svg>
