<svg viewBox="0 0 249.17732 84.258255" xmlns="http://www.w3.org/2000/svg"><g fill="#fff"><path d="M163.692 48.916c0 2.911-.787 5.141-2.355 6.697-1.57 1.554-3.24 2.138-5.46 2.138l-10.125.061h-4.645a2.245 2.245 0 0 0-2.247 2.24 2.248 2.248 0 0 0 2.247 2.242h11.502c6.051 0 10.975 4.925 10.975 10.98 0 6.054-4.924 10.977-10.975 10.977H130.12c0-2.91.786-5.14 2.354-6.695 1.571-1.556 3.234-2.034 5.452-2.034l6.885-.005h7.791a2.246 2.246 0 0 0 2.244-2.245 2.247 2.247 0 0 0-2.244-2.244h-11.501c-6.056 0-10.981-4.926-10.981-10.978 0-6.054 4.948-11.134 11.004-11.134h22.567M62.918 66.672c0-2.464-.846-4.58-2.537-6.35-1.692-1.771-3.771-2.656-6.239-2.656s-4.546.885-6.238 2.655c-1.69 1.77-2.534 3.887-2.534 6.35 0 2.433.85 4.527 2.557 6.286 1.703 1.754 3.776 2.635 6.217 2.635h8.775zm-8.753 17.595c-4.896 0-9.095-1.714-12.594-5.145-3.498-3.429-5.25-7.58-5.25-12.445 0-4.87 1.75-9.031 5.25-12.489 3.5-3.46 7.698-5.19 12.594-5.19 4.894 0 9.1 1.73 12.613 5.19 3.512 3.458 5.27 7.618 5.27 12.489v17.596H54.16M93.31 57.66h-8.776v8.922c0 2.464.846 4.578 2.538 6.35 1.69 1.768 3.77 2.653 6.238 2.653 2.469 0 4.547-.885 6.238-2.654 1.69-1.771 2.538-3.885 2.538-6.349 0-2.434-.852-4.53-2.559-6.287-1.702-1.756-3.775-2.636-6.216-2.636zm.02 26.594c-4.895 0-9.093-1.728-12.59-5.187-3.502-3.456-5.252-7.62-5.252-12.486V40.734c2.879 0 5.105.788 6.68 2.365 1.579 1.575 2.365 3.458 2.365 5.644v.247h8.797c4.897 0 9.1 1.708 12.614 5.127 3.512 3.415 5.27 7.571 5.27 12.469 0 4.865-1.758 9.03-5.27 12.486-3.514 3.46-7.717 5.187-12.614 5.187m24.44-2.365c-1.578-1.576-2.366-3.457-2.366-5.64v-27.26c2.877 0 5.106.789 6.679 2.365 1.58 1.576 2.366 3.46 2.366 5.642v27.26c-2.878 0-5.102-.788-6.678-2.365m75.114-15.238c0-2.462-.846-4.579-2.538-6.349-1.689-1.771-3.77-2.655-6.236-2.655-2.468 0-4.547.884-6.24 2.655-1.691 1.77-2.536 3.887-2.536 6.35 0 2.432.853 4.526 2.56 6.284 1.703 1.755 3.774 2.634 6.216 2.634h8.774zm-8.754 17.596c-4.896 0-9.092-1.714-12.593-5.146-3.5-3.43-5.248-7.579-5.248-12.444 0-4.871 1.748-9.031 5.248-12.49 3.5-3.458 7.697-5.189 12.593-5.189s9.1 1.73 12.612 5.19c3.512 3.456 5.272 7.616 5.272 12.489v17.595h-17.889M25.834 84.24h9.043L26.79 66.659c6.626-7.255 5.772-17.235 5.772-17.235h-9.044s1.81 14.596-14.476 15.929v-8.365c0-2.183-.789-4.067-2.366-5.64C5.1 49.77 2.874 48.981-.002 48.981v35.271h9.044V73.986c4.354-.239 7.895-1.116 10.795-2.397l5.993 12.645M223.278 71.79a.084.084 0 0 1 .01-.003l-.017.002.007.001"/><path d="M177.022 4.434c-.313-.774.278-1.744 1.323-2.17 1.042-.426 2.071-.112 2.462.628.686 1.298-1.319 2.171-1.319 2.171-1.045.428-2.148.146-2.466-.629zm72.076 53.6c-.102-6.752-2.498-14.61-9.551-22.715-7.442-8.555-15.476-12.483-41.896-14.85-19.809-1.77-17.596-7.608-17.596-7.608.061-.01 10.475-1.792 10.364-10.843 0 0-12.004-6.84-20.195 4.79-4.627 6.566-1.229 15.103.79 18.169 0 0-5.966.498-6.478 8.905-.526 8.641 7.084 14.983 7.084 14.983s-2.374-12.912 3.366-14.383c3.02-.775 2.442 1.065 9.139 4.711 7.471 4.07 12.431 1.098 13.207.94 0 0-1.549 7.368 5.153 13.703 0 0 3.594-12.433 14.703-11.851 8.946.467 14.677 3.835 18.196 10.71 1.52 2.963 2.27 5.625 2.27 9.191 0 11.43-6.93 15.183-13.677 15.183-3.95 0-7.823-3.203-7.823-7.153l-.016-.062c0-3.655 2.615-5.079 5.407-5.102 2.67.025 4.63 1.516 4.63 3.515 0 1.082-1.151 2.973-2.89 3.52 2.608-.226 5.063-2.168 5.063-5.04 0-2.657-3.335-6.399-7.911-6.399-4.58 0-10.324 3.142-10.324 10.295 0 5.686 5.068 13.583 15.743 13.583v.004c15.462 0 23.22-10.808 23.22-26.02l-.002-.181"/></g></svg>
